<svg xmlns="http://www.w3.org/2000/svg" xmlns:xlink="http://www.w3.org/1999/xlink" width="200" height="200" class="icon" p-id="12014" t="1714978675408" version="1.1" viewBox="0 0 1024 1024"><path d="M244.115394 95.325091c-14.015354 1.882505-23.417535 18.638869-20.852364 37.267394l101.541495 744.448c2.565172 18.628525 16.063354 32.302545 30.078707 30.430384 14.025697-1.882505 23.427879-18.638869 20.862707-37.267394L274.204444 125.755475c-2.565172-18.628525-16.063354-32.302545-30.08905-30.430384z m240.174545 711.969616c-0.858505-0.165495-6.83701-1.541172-12.825858 0.682667a22.403879 22.403879 0 0 0-14.522182 20.004202 22.134949 22.134949 0 0 0 15.204848 21.53503l0.517172 0.175838c61.543434 12.308687 99.65899 32.819717 99.65899 53.496243 0 31.288889-89.739636 64.791273-223.242343 64.791273-133.513051 0-223.252687-33.512727-223.252687-64.791273 0-20.51103 37.608727-40.856566 98.117818-53.165253 10.426182-2.048 17.780364-11.450182 17.604525-22.041858a22.031515 22.031515 0 0 0-15.039353-20.004202c-6.154343-1.882505-11.108848-0.848162-12.474182-0.341334C129.934222 827.288566 79.84097 863.190626 79.84097 903.540364c0 30.42004 28.723717 58.626586 80.678788 79.313454 50.610424 20.169697 117.615192 31.278545 188.902141 31.278546 71.276606 0 138.457212-11.108848 188.881455-31.278546 51.965414-20.686869 80.678788-48.893414 80.678787-79.313454-0.165495-40.691071-50.589737-76.582788-134.692202-96.245657z m350.601051-365.299071c-11.62602 3.589172-23.58303 6.330182-36.067556 8.036849-53.682424 7.343838-108.719838 2.389333-151.117575-13.67402-36.067556-13.67402-83.926626-17.790707-131.103031-11.460526-51.282747 7.012848-94.197657 35.043556-122.052525 55.56493l-5.48202 4.096c-9.90901 7.343838-24.100202 1.365333-25.63103-10.943354l-48.03491-352.297374a15.887515 15.887515 0 0 1 6.495677-15.215192l1.882505-1.375676c31.44404-23.065859 80.161616-54.696081 140.681051-63.074263 53.682424-7.343838 108.709495-2.389333 151.117576 13.508525 36.233051 13.67402 84.092121 17.77002 131.278868 11.450182 48.200404-6.495677 90.422303-33.843717 121.711192-57.095757L874.020202 5.409616c9.919354-7.343838 24.100202-1.365333 25.817212 10.943354l47.683232 352.483555a16.321939 16.321939 0 0 1-6.485333 15.380687l-1.882505 1.365333c-29.406384 21.369535-63.756929 43.763071-104.272162 56.413091z m-362.227071-48.717575a245.139394 245.139394 0 0 1 38.291394-8.543677c53.682424-7.343838 108.719838-2.399677 151.117576 13.67402 36.067556 13.67402 83.926626 17.780364 131.10303 11.450182 39.315394-5.295838 74.017616-24.100202 103.765334-44.269899 5.130343-3.413333 7.695515-9.57802 7.002505-15.556525L867.876202 85.922909a16.290909 16.290909 0 0 0-24.100202-11.95701c-26.830869 15.204848-57.778424 28.030707-91.963475 32.819717-53.506586 7.343838-108.709495 2.389333-151.117576-13.67402-36.233051-13.684364-84.092121-17.790707-131.278868-11.284687-41.197899 5.637172-76.924121 24.782869-103.75499 42.728727-5.130343 3.413333-8.036848 9.57802-7.178344 15.722021l36.067556 264.274747a16.290909 16.290909 0 0 0 23.924364 12.143192 284.444444 284.444444 0 0 1 54.199596-23.417535z"/></svg>