<?xml version="1.0" standalone="no"?>
<!DOCTYPE svg PUBLIC "-//W3C//DTD SVG 1.1//EN" "http://www.w3.org/Graphics/SVG/1.1/DTD/svg11.dtd">
<svg t="1715408101176" class="icon" viewBox="0 0 1024 1024" version="1.1"
  xmlns="http://www.w3.org/2000/svg" p-id="2742" xmlns:xlink="http://www.w3.org/1999/xlink"
  width="200" height="200">
  <path
    d="M868.323104 886.383069c0-0.361199 0-0.722399-0.361199-1.083598L722.03739 334.831746l33.591534-204.077601c3.250794-19.143563-1.444797-38.648325-13.725573-53.096296-12.280776-14.447972-30.340741-22.394356-49.845503-22.394356l-87.04903 0c-6.501587 0-12.641975 4.334392-14.447972 10.835979l-18.782363 67.544268c0 0.361199-0.361199 1.083598-0.361199 1.444797-0.722399 4.334392-6.862787 9.391182-11.197178 9.391182l-105.831393 0c-4.695591 0-10.47478-4.695591-11.197178-9.391182 0-0.361199 0-0.722399-0.361199-1.083598l-17.337566-67.544268c-1.805996-6.501587-7.585185-11.197178-14.447972-11.197178l-92.828219 0c-19.504762 0-37.564727 8.307584-49.845503 22.394356-12.280776 14.447972-17.337566 33.591534-13.725573 52.735097l33.591534 204.077601L155.676896 885.66067c0 0.361199 0 0.722399-0.361199 1.083598-3.250794 19.143563 1.805996 38.648325 13.725573 52.735097 11.919577 14.447972 30.340741 22.755556 49.845503 22.755556l585.865256 0c19.504762 0 37.564727-8.307584 49.845503-22.394356C866.878307 925.031393 871.935097 905.887831 868.323104 886.383069zM355.781305 342.416931c0.722399-2.167196 0.722399-4.334392 0.361199-6.501587l-35.397531-214.191182 51.2903 0 6.501587 25.283951c6.501587 35.75873 39.731922 63.571076 76.213051 63.571076l105.831393 0c36.481129 0 69.711464-27.812346 76.213051-63.571076l6.862787-25.283951 46.955908 0-35.036332 212.023986c-0.722399 2.528395-1.083598 5.417989-0.361199 8.307584L802.946032 895.77425l-581.530864 0L355.781305 342.416931z"
    p-id="2743"></path>
  <path d="M413.934392 884.215873"></path>
</svg>