<svg xmlns="http://www.w3.org/2000/svg" width="200" height="112.47" class="icon" version="1.1" viewBox="0 0 1821 1024"><rect width="700" height="700" x="550" y="100" fill="#FFF"/><path d="M1190.533333 58.32H630.666667c-95.8 0-173.773333 72-173.773334 160.466667v586.426666c0 88.48 77.973333 160.466667 173.773334 160.466667h559.866666c95.826667 0 173.773333-72 173.773334-160.466667V218.786667c0-88.48-77.946667-160.466667-173.773334-160.466667zM1208.56 254.666667v239.546666a40.626667 40.626667 0 1 1-81.253333 0V352.773333l-91.72 91.72c63.333333 90.666667 54.786667 216.533333-26.04 297.333334a232.6 232.6 0 1 1-31.36-354.853334l91.666666-91.666666H928.413333a40.626667 40.626667 0 1 1 0-81.253334H1168a40.253333 40.253333 0 0 1 14.813333 2.88c0.213333 0.08 0.413333 0.106667 0.613334 0.186667a40.72 40.72 0 0 1 22.12 22.106667c0.08 0.213333 0.106667 0.426667 0.2 0.626666a40.813333 40.813333 0 0 1 2.813333 14.813334z"/><path d="M845.146667 426.253333a151.213333 151.213333 0 1 0 106.946666 44.28 150.24 150.24 0 0 0-106.946666-44.28z"/></svg>