<?xml version="1.0" standalone="no"?>
<!DOCTYPE svg PUBLIC "-//W3C//DTD SVG 1.1//EN" "http://www.w3.org/Graphics/SVG/1.1/DTD/svg11.dtd">
<svg class="icon" width="200px" height="112.47px" viewBox="0 0 1821 1024" version="1.1"
  xmlns="http://www.w3.org/2000/svg">
  <rect x="550px" y="100px" width="700px" height="700px" fill="#FFFFFF" />
  <path d="M992 295.4a135.28 135.28 0 1 0 95.733333 39.56 135 135 0 0 0-95.733333-39.56z"
    />
  <path
    d="M1190.533333 58.32H630.733333c-95.813333 0-173.786667 72-173.786666 160.466667v586.426666c0 88.48 77.973333 160.466667 173.786666 160.466667H1190.533333c95.84 0 173.786667-72 173.786667-160.466667V218.786667c0-88.48-77.946667-160.466667-173.786667-160.466667z m-45.333333 525.533333a216.72 216.72 0 0 1-274.826667 25.92l-37.88 37.88 92.84 92.933334a40.626667 40.626667 0 0 1-57.453333 57.453333l-92.92-92.933333-65.933333 65.933333a40.626667 40.626667 0 0 1-57.453334-57.453333l65.933334-65.933334-92.92-92.92a40.626667 40.626667 0 0 1 57.466666-57.4l92.92 92.92 37.88-37.866666c-57.266667-84.266667-48.706667-200.2 25.92-274.813334 84.493333-84.466667 221.866667-84.466667 306.36 0s84.453333 221.813333 0 306.28z"
    />
</svg>