<svg xmlns="http://www.w3.org/2000/svg" xmlns:xlink="http://www.w3.org/1999/xlink" width="200" height="200" class="icon" p-id="4388" t="1714469693471" version="1.1" viewBox="0 0 1024 1024"><path fill="#58595B" d="M896 469.333333h-66.133333l54.186666-55.466666a42.666667 42.666667 0 0 0-61.44-59.733334L710.826667 469.333333h-53.333334L554.666667 366.506667V313.173333l115.2-111.786666a42.666667 42.666667 0 1 0-59.733334-61.44L554.666667 194.133333V128a42.666667 42.666667 0 0 0-85.333334 0v66.133333L413.866667 139.946667a42.666667 42.666667 0 0 0-59.733334 61.44L469.333333 313.173333v53.333334L366.506667 469.333333H313.173333L201.386667 354.133333a42.666667 42.666667 0 1 0-61.44 59.733334L194.133333 469.333333H128a42.666667 42.666667 0 0 0 0 85.333334h66.133333l-54.186666 55.466666a42.666667 42.666667 0 0 0 61.44 59.733334L313.173333 554.666667h53.333334L469.333333 657.493333v53.333334l-115.2 111.786666a42.666667 42.666667 0 0 0 59.733334 61.44l55.466666-54.186666V896a42.666667 42.666667 0 0 0 85.333334 0v-66.133333l55.466666 54.186666a42.666667 42.666667 0 0 0 59.733334-61.44L554.666667 710.826667v-53.333334L657.493333 554.666667h53.333334l111.786666 115.2a42.666667 42.666667 0 0 0 61.44-59.733334L829.866667 554.666667H896a42.666667 42.666667 0 0 0 0-85.333334z m-384 110.506667L444.16 512 512 444.16 579.84 512z" p-id="4389"/></svg>